<svg width="40" height="37" viewBox="0 0 40 37" fill="none" xmlns="http://www.w3.org/2000/svg">
<path d="M20 36.9211C19.3824 36.9203 18.7794 36.7337 18.2693 36.3856C10.713 31.256 7.44106 27.7389 5.63634 25.54C1.7904 20.8527 -0.0508527 16.0405 0.00106765 10.8292C0.0616413 4.85743 4.85273 0 10.6813 0C14.9195 0 17.8549 2.38737 19.5644 4.37573C19.6186 4.43808 19.6855 4.48808 19.7607 4.52234C19.8358 4.55661 19.9174 4.57434 20 4.57434C20.0826 4.57434 20.1642 4.55661 20.2394 4.52234C20.3145 4.48808 20.3814 4.43808 20.4356 4.37573C22.1451 2.38545 25.0805 0 29.3187 0C35.1473 0 39.9384 4.85743 39.9989 10.8302C40.0508 16.0424 38.2077 20.8547 34.3637 25.5409C32.5589 27.7399 29.287 31.257 21.7307 36.3865C21.2205 36.7343 20.6175 36.9206 20 36.9211Z" fill="#BDC3C4"/>
</svg>
