<svg width="40" height="39" viewBox="0 0 40 39" fill="none" xmlns="http://www.w3.org/2000/svg">
<path d="M21.1946 0.741247C21.0843 0.518671 20.914 0.331337 20.703 0.200367C20.4919 0.0693972 20.2484 0 20 0C19.7516 0 19.5081 0.0693972 19.297 0.200367C19.086 0.331337 18.9157 0.518671 18.8054 0.741247L13.3468 11.7997L1.1417 13.573C0.895436 13.6088 0.664097 13.7127 0.473851 13.8731C0.283605 14.0335 0.142046 14.244 0.0651884 14.4807C-0.0116695 14.7173 -0.0207588 14.9708 0.0389488 15.2124C0.0986565 15.454 0.224778 15.674 0.403045 15.8476L9.23487 24.4555L7.14958 36.6126C7.10775 36.8576 7.13524 37.1094 7.22895 37.3396C7.32266 37.5698 7.47886 37.7693 7.67992 37.9154C7.88098 38.0616 8.11889 38.1486 8.36679 38.1667C8.6147 38.1848 8.86273 38.1333 9.08288 38.0179L20 32.2766L30.9171 38.0179C31.1373 38.1333 31.3853 38.1848 31.6332 38.1667C31.8811 38.1486 32.119 38.0616 32.3201 37.9154C32.5211 37.7693 32.6773 37.5698 32.771 37.3396C32.8648 37.1094 32.8923 36.8576 32.8504 36.6126L30.7651 24.4528L39.597 15.8476C39.7752 15.674 39.9013 15.454 39.961 15.2124C40.0208 14.9708 40.0117 14.7173 39.9348 14.4807C39.858 14.244 39.7164 14.0335 39.5261 13.8731C39.3359 13.7127 39.1046 13.6088 38.8583 13.573L26.6532 11.7997L21.1946 0.741247Z" fill="#BDC3C4"/>
</svg>
