<svg width="40" height="32" viewBox="0 0 40 32" fill="none" xmlns="http://www.w3.org/2000/svg">
<path d="M20 7.04935L17.3212 7.23061C15.5891 5.17623 10.7351 0 5.90131 0C5.90131 0 1.93354 5.96173 5.82075 13.9174C4.71299 15.5891 4.0282 16.4552 3.88721 18.4491L0 19.0332L0.422961 21.007L3.96777 20.4834L4.24975 21.9134L1.08761 23.8066L2.03424 25.5992L4.95468 23.8066C7.2709 28.721 13.1319 31.2185 20 31.2185C26.8681 31.2185 32.7291 28.721 35.0453 23.8066L37.9658 25.5992L38.9124 23.8066L35.7503 21.9134L36.0322 20.4834L39.577 21.007L40 19.0332L36.1128 18.4491C35.9718 16.4552 35.287 15.5891 34.1793 13.9174C38.0665 5.96173 34.0987 0 34.0987 0C29.2649 0 24.4109 5.17623 22.6788 7.23061L20 7.04935ZM13.9577 13.0916C14.4919 13.0916 15.0042 13.3038 15.3819 13.6816C15.7596 14.0593 15.9718 14.5716 15.9718 15.1057C15.9718 15.6399 15.7596 16.1522 15.3819 16.5299C15.0042 16.9076 14.4919 17.1198 13.9577 17.1198C13.4235 17.1198 12.9112 16.9076 12.5335 16.5299C12.1558 16.1522 11.9436 15.6399 11.9436 15.1057C11.9436 14.5716 12.1558 14.0593 12.5335 13.6816C12.9112 13.3038 13.4235 13.0916 13.9577 13.0916ZM26.0423 13.0916C26.5765 13.0916 27.0888 13.3038 27.4665 13.6816C27.8442 14.0593 28.0564 14.5716 28.0564 15.1057C28.0564 15.6399 27.8442 16.1522 27.4665 16.5299C27.0888 16.9076 26.5765 17.1198 26.0423 17.1198C25.5081 17.1198 24.9958 16.9076 24.6181 16.5299C24.2404 16.1522 24.0282 15.6399 24.0282 15.1057C24.0282 14.5716 24.2404 14.0593 24.6181 13.6816C24.9958 13.3038 25.5081 13.0916 26.0423 13.0916ZM17.9859 19.1339H22.0141L20.6042 21.9335C21.0071 23.2226 22.1349 24.1692 23.5247 24.1692C24.3259 24.1692 25.0944 23.8509 25.6609 23.2843C26.2275 22.7177 26.5458 21.9493 26.5458 21.148H27.5529C27.5529 22.2164 27.1285 23.241 26.373 23.9964C25.6176 24.7518 24.593 25.1762 23.5247 25.1762C22.0141 25.1762 20.7049 24.3505 20 23.1621C19.2951 24.3505 17.9859 25.1762 16.4753 25.1762C15.407 25.1762 14.3824 24.7518 13.627 23.9964C12.8715 23.241 12.4471 22.2164 12.4471 21.148H13.4542C13.4542 21.9493 13.7725 22.7177 14.3391 23.2843C14.9056 23.8509 15.6741 24.1692 16.4753 24.1692C17.8651 24.1692 18.993 23.2226 19.3958 21.9335L17.9859 19.1339Z" fill="#BDC3C4"/>
</svg>
