<svg width="32" height="46" viewBox="0 0 32 46" fill="none" xmlns="http://www.w3.org/2000/svg">
<path d="M16 0C11.7565 0 7.68687 1.68571 4.68629 4.68629C1.68571 7.68687 0 11.7565 0 16C0 21.44 2.72 26.2171 6.85714 29.12V34.2857C6.85714 34.8919 7.09796 35.4733 7.52661 35.902C7.95527 36.3306 8.53665 36.5714 9.14286 36.5714H22.8571C23.4634 36.5714 24.0447 36.3306 24.4734 35.902C24.902 35.4733 25.1429 34.8919 25.1429 34.2857V29.12C29.28 26.2171 32 21.44 32 16C32 11.7565 30.3143 7.68687 27.3137 4.68629C24.3131 1.68571 20.2435 0 16 0ZM9.14286 43.4286C9.14286 44.0348 9.38367 44.6162 9.81233 45.0448C10.241 45.4735 10.8224 45.7143 11.4286 45.7143H20.5714C21.1776 45.7143 21.759 45.4735 22.1877 45.0448C22.6163 44.6162 22.8571 44.0348 22.8571 43.4286V41.1429H9.14286V43.4286Z" fill="#BDC3C4"/>
</svg>
