<svg width="35" height="41" viewBox="0 0 35 41" fill="none" xmlns="http://www.w3.org/2000/svg">
<path d="M35 8.75355V25.3297C35 33.7517 28.2824 40.7427 19.8695 40.8357C17.8276 40.8633 15.801 40.4808 13.9097 39.7108C12.0183 38.9408 10.3008 37.799 8.85886 36.353C4.883 32.1475 0.391249 21.8788 0.391249 21.8788C0.19367 21.5369 0.0675946 21.1583 0.0206656 20.7662C-0.0262634 20.3741 0.00693213 19.9765 0.118239 19.5976C0.229547 19.2186 0.416647 18.8663 0.668197 18.5618C0.919748 18.2574 1.23051 18.0072 1.58164 17.8264C2.97802 17.0972 4.69889 17.6733 5.48276 19.0332L9.31096 25.676C9.41743 25.8673 9.57806 26.0228 9.77268 26.123C9.96729 26.2233 10.1872 26.2637 10.4047 26.2393H10.4266C10.7769 26.179 11.0942 25.9957 11.3214 25.7224C11.5487 25.449 11.6709 25.1036 11.6662 24.7481V5.83683C11.6658 5.44169 11.7456 5.05059 11.9009 4.68724C12.0561 4.3239 12.2836 3.99589 12.5695 3.72313C12.8554 3.45037 13.1937 3.23854 13.564 3.1005C13.9342 2.96246 14.3286 2.90109 14.7233 2.9201C16.2929 2.99302 17.4997 4.34565 17.4997 5.91521V17.5037C17.4992 17.7036 17.5399 17.9015 17.6191 18.0851C17.6984 18.2686 17.8145 18.4339 17.9604 18.5707C18.1062 18.7074 18.2786 18.8127 18.4668 18.8801C18.6551 18.9474 18.8552 18.9753 19.0546 18.9621C19.4296 18.9299 19.7786 18.7569 20.0312 18.4778C20.2838 18.1988 20.4214 17.8345 20.4164 17.4581V2.9201C20.4159 2.52497 20.4958 2.13386 20.651 1.77052C20.8063 1.40718 21.0338 1.07917 21.3197 0.80641C21.6056 0.533649 21.9439 0.32182 22.3141 0.183779C22.6844 0.0457384 23.0788 -0.0156362 23.4735 0.00337981C25.043 0.0762979 26.2498 1.42893 26.2498 2.99849V18.9621C26.2494 19.162 26.2901 19.3599 26.3693 19.5434C26.4486 19.727 26.5647 19.8923 26.7105 20.029C26.8564 20.1658 27.0288 20.2711 27.217 20.3384C27.4052 20.4058 27.6053 20.4337 27.8048 20.4204C28.1798 20.3882 28.5287 20.2152 28.7814 19.9362C29.034 19.6572 29.1716 19.2929 29.1666 18.9165V8.83558C29.1666 7.26602 30.3733 5.91886 31.9429 5.84047C32.3373 5.82147 32.7314 5.88274 33.1014 6.02056C33.4714 6.15837 33.8095 6.36988 34.0954 6.64225C34.3812 6.91462 34.6088 7.24218 34.7643 7.6051C34.9198 7.96802 35 8.35872 35 8.75355Z" fill="#BDC3C4"/>
</svg>
