<svg width="40" height="30" viewBox="0 0 40 30" fill="none" xmlns="http://www.w3.org/2000/svg">
<path d="M30.9091 0C27.8 0 25.9091 0.6 24.8182 1.10909C23.4182 0.418182 21.8182 0 20 0C18.1818 0 16.5818 0.418182 15.1818 1.10909C14.0909 0.6 12.2 0 9.09091 0C3.63636 0 0 14.5455 0 18.1818C0 19.6909 2.4 21.0727 5.70909 21.6364C6.87273 25.7091 12.3636 28.8182 19.0909 29.0909V21.3091C18.0182 20.6364 16.3636 19.4182 16.3636 18.1818C16.3636 16.3636 20 16.3636 20 16.3636C20 16.3636 23.6364 16.3636 23.6364 18.1818C23.6364 19.4182 21.9818 20.6364 20.9091 21.3091V29.0909C27.6364 28.8182 33.1273 25.7091 34.2909 21.6364C37.6 21.0727 40 19.6909 40 18.1818C40 14.5455 36.3636 0 30.9091 0ZM5.72727 17.9455C4.81818 17.7273 4.10909 17.4727 3.63636 17.2727C4.09091 12.2364 7.63636 4.36364 9.18182 3.63636C10.1636 3.63636 10.9091 3.74545 11.5818 3.83636C7.76364 8.03636 6.25455 14.6182 5.72727 17.9455ZM14.5455 14.5455C14.0632 14.5455 13.6008 14.3539 13.2598 14.0129C12.9188 13.6719 12.7273 13.2095 12.7273 12.7273C12.7273 11.7455 13.5455 10.9091 14.5455 10.9091C15.0277 10.9091 15.4901 11.1006 15.8311 11.4416C16.1721 11.7826 16.3636 12.2451 16.3636 12.7273C16.3636 13.7455 15.5455 14.5455 14.5455 14.5455ZM25.4545 14.5455C24.9723 14.5455 24.5099 14.3539 24.1689 14.0129C23.8279 13.6719 23.6364 13.2095 23.6364 12.7273C23.6364 11.7455 24.4545 10.9091 25.4545 10.9091C25.9368 10.9091 26.3992 11.1006 26.7402 11.4416C27.0812 11.7826 27.2727 12.2451 27.2727 12.7273C27.2727 13.7455 26.4545 14.5455 25.4545 14.5455ZM34.2727 17.9455C33.7455 14.6182 32.2364 8.03636 28.4182 3.83636C29.0909 3.74545 29.8364 3.63636 30.8182 3.63636C32.3636 4.36364 35.9091 12.2364 36.3636 17.2727C35.9091 17.4727 35.2 17.7273 34.2727 17.9455Z" fill="#BDC3C4"/>
</svg>
