<svg width="33" height="39" viewBox="0 0 33 39" fill="none" xmlns="http://www.w3.org/2000/svg">
<path fill-rule="evenodd" clip-rule="evenodd" d="M27.3054 0.0114963C27.5924 0.0450276 27.8686 0.146727 28.1134 0.309036C28.3583 0.471345 28.5655 0.690091 28.7197 0.949018C34.8689 11.276 33.9407 22.2389 28.8042 29.1439C26.2389 32.5904 22.6358 34.9953 18.4332 35.7066C14.7668 36.3241 10.7602 35.6332 6.72282 33.3913C6.35195 34.6325 6.08868 35.837 5.93687 36.9723C5.86303 37.5055 5.59301 37.9861 5.18592 38.3087C4.77883 38.6313 4.26781 38.7698 3.76469 38.6938C3.26157 38.6178 2.80733 38.3335 2.50135 37.9032C2.19537 37.4728 2.06259 36.9314 2.13205 36.3975C2.39899 34.5063 2.85109 32.6498 3.48103 30.858C0.527494 27.4136 -0.27959 23.0562 0.0797547 19.1634C0.47561 14.8692 2.32229 10.7502 4.72625 8.62446C7.93921 5.7854 11.3136 4.61962 14.2421 4.04895C15.522 3.81403 16.8106 3.63656 18.1046 3.51701C19.0251 3.41918 19.9648 3.35396 20.8641 3.11755C22.1952 2.77616 23.4675 2.21495 24.6343 1.45446C25.4837 0.891951 26.2081 -0.118941 27.3054 0.0114963ZM8.16596 29.5882C10.3028 24.9679 13.7963 20.5391 18.3448 18.126C18.5726 18.0077 18.776 17.8427 18.9433 17.6405C19.1106 17.4384 19.2386 17.2032 19.3197 16.9483C19.4009 16.6935 19.4338 16.4241 19.4163 16.1558C19.3989 15.8875 19.3316 15.6254 19.2182 15.3848C19.1048 15.1442 18.9477 14.9298 18.7558 14.7539C18.5639 14.578 18.3411 14.4441 18.1002 14.36C17.8593 14.2759 17.6051 14.2432 17.3523 14.2637C17.0994 14.2843 16.8529 14.3578 16.6269 14.4799C11.6153 17.1376 7.77587 21.7335 5.27968 26.6351C5.77583 27.4925 6.39129 28.2655 7.10522 28.9279C7.46137 29.163 7.81366 29.3831 8.16596 29.5882Z" fill="#BDC3C4"/>
</svg>
